<?xml version="1.0" ?><svg data-name="Layer 1" id="Layer_1" viewBox="0 0 60 60" xmlns="http://www.w3.org/2000/svg" xmlns:xlink="http://www.w3.org/1999/xlink"><defs><style>.cls-1,.cls-4{fill:none;}.cls-1{clip-rule:evenodd;}.cls-2{clip-path:url(#clip-path);}.cls-3{fill:#81a4e3;}.cls-4{stroke:#314e55;stroke-miterlimit:10;stroke-width:2px;}</style><clipPath id="clip-path"><path class="cls-1" d="M10,49V18h7V49H10Zm3.33-34.73A4.06,4.06,0,0,1,9,10.15,4.09,4.09,0,0,1,13.43,6,4.13,4.13,0,1,1,13.33,14.27ZM45,33.13c0-3.79-2.94-6.8-6.22-6.8-2.51,0-4.72,0-6.19,3.17A10.8,10.8,0,0,0,32,32.63V49H24V18h8.26l0.41,4h0.18c1.19-1.92,3.91-4,8.8-4C47.65,18,53,22.68,53,31.33V49H45V33.13Z"/></clipPath></defs><title/><g class="cls-2"><rect class="cls-3" height="52.97" width="53.96" x="4.04" y="1.03"/></g><path class="cls-4" d="M10,49V18h7V49H10Zm3.33-34.73A4.06,4.06,0,0,1,9,10.15,4.09,4.09,0,0,1,13.43,6,4.13,4.13,0,1,1,13.33,14.27ZM45,33.13c0-3.79-2.94-6.8-6.22-6.8-2.51,0-4.72,0-6.19,3.17A10.8,10.8,0,0,0,32,32.63V49H24V18h8.26l0.41,4h0.18c1.19-1.92,3.91-4,8.8-4C47.65,18,53,22.68,53,31.33V49H45V33.13Z"/></svg>